PathFileType	4	(X/Y/Z)	C:\Users\Basilio\Documents\Thesis Gigler\squatting_fais\c3dfiles\044\SLS_front_pre5\markers_experimental.trc
DataRate	CameraRate	NumFrames	NumMarkers	Units	OrigDataRate	OrigDataStartFrame	OrigNumFrames
200.000000	200.000000	4	60	mm	200.000000	1248	1427
Frame#	Time	FHD			LBHD			RBHD			C7			T10			LSHO			LUUPA			LMUPA			LDUPA			LLEP			LMEP			LUL			LRFIN			RSHO			RUPA1			RMUPA			RDUPA			RLEP			RMEP			RUL			RUFIN			LASI			RASI			USACR			LSACR			RSACR			LTHI1			LTHI2			LTHI3			LTHI4			LLFC			LMFC			LTIB1			LTIB2			LTIB3			LTIB4			LLMAL			LMMAL			LHEE			LMT1			LMT2			LMT5			RTHI			RTHI2			RTHI3			RTHI4			RLFC			RMFC			RTIB1			RTIB2			RTIB3			RTIB4			RLMAL			RHEE			RMT1			RMT2			RMT5			CLAV			RMMAL			LRAD			
		X1	Y1	Z1	X2	Y2	Z2	X3	Y3	Z3	X4	Y4	Z4	X5	Y5	Z5	X6	Y6	Z6	X7	Y7	Z7	X8	Y8	Z8	X9	Y9	Z9	X10	Y10	Z10	X11	Y11	Z11	X12	Y12	Z12	X13	Y13	Z13	X14	Y14	Z14	X15	Y15	Z15	X16	Y16	Z16	X17	Y17	Z17	X18	Y18	Z18	X19	Y19	Z19	X20	Y20	Z20	X21	Y21	Z21	X22	Y22	Z22	X23	Y23	Z23	X24	Y24	Z24	X25	Y25	Z25	X26	Y26	Z26	X27	Y27	Z27	X28	Y28	Z28	X29	Y29	Z29	X30	Y30	Z30	X31	Y31	Z31	X32	Y32	Z32	X33	Y33	Z33	X34	Y34	Z34	X35	Y35	Z35	X36	Y36	Z36	X37	Y37	Z37	X38	Y38	Z38	X39	Y39	Z39	X40	Y40	Z40	X41	Y41	Z41	X42	Y42	Z42	X43	Y43	Z43	X44	Y44	Z44	X45	Y45	Z45	X46	Y46	Z46	X47	Y47	Z47	X48	Y48	Z48	X49	Y49	Z49	X50	Y50	Z50	X51	Y51	Z51	X52	Y52	Z52	X53	Y53	Z53	X54	Y54	Z54	X55	Y55	Z55	X56	Y56	Z56	X57	Y57	Z57	X58	Y58	Z58	X59	Y59	Z59	X60	Y60	Z60	

1249	6.24	-258.6207275390626	1813.113525390625	-853.959411621094	-388.1578369140626	1757.181518554688	-925.236022949219	-420.0101928710939	1731.957275390625	-763.4493408203126	-417.8267517089845	1562.668579101563	-850.318298339844	-389.596893310547	1259.534912109375	-842.0632934570315	-331.6181945800782	1596.51025390625	-996.571228027344	-167.1920928955078	1581.12353515625	-1096.4794921875	-140.3202056884766	1593.60400390625	-1056.193725585938	-98.69824218750003	1580.198974609375	-1097.414672851563	-39.86799240112305	1582.110229492188	-1088.370483398438	-46.31504821777344	1505.776733398438	-1076.596069335938	211.2680969238282	1602.484985351563	-965.5786743164065	216.3071594238282	1619.439697265625	-863.536804199219	-324.8450317382813	1576.758056640625	-693.7516479492189	-168.0258331298828	1558.160888671875	-592.1569213867189	-139.3895263671875	1575.3955078125	-631.0485229492189	-98.58621978759768	1561.326904296875	-588.1575317382814	-37.49591827392579	1568.389770507813	-597.3411865234376	-35.26829528808594	1487.080322265625	-610.5855102539064	211.5561676025391	1599.1259765625	-727.3308105468751	218.1227722167969	1590.299682617188	-842.6894531250002	-210.8278961181641	1077.697509765625	-958.1160888671877	-185.8874053955078	1061.39306640625	-743.7130126953126	-369.3527832031251	1116.069946289063	-829.6895751953127	-374.5545043945313	1082.177856445313	-856.0679931640627	-366.9436035156251	1085.81396484375	-799.063659667969	-318.2865905761719	845.4793701171877	-1034.2685546875	-287.2256469726563	766.9196777343751	-1044.292114257813	-238.7884979248047	767.1436767578126	-1040.953369140625	-315.6479797363282	714.6251220703126	-1031.455810546875	-304.1158447265626	554.3443603515626	-1031.78857421875	-284.7748718261719	537.1864013671876	-911.6060180664065	-278.3095397949219	372.4895019531251	-980.063659667969	-309.2123413085938	333.9162902832032	-1054.043212890625	-276.9543762207032	328.7172241210938	-1020.164733886719	-289.8932189941407	248.0431823730469	-998.4458618164065	-344.4094238281251	134.1475524902344	-1053.848022460938	-321.5257568359376	137.3545532226563	-970.4273071289065	-407.9632263183595	111.6306533813477	-1006.43408203125	-202.4196319580079	63.50405120849611	-986.6851806640627	-198.7190551757813	62.47975540161134	-1032.305297851563	-238.6623229980469	51.4948081970215	-1078.812866210938	-288.5146789550782	794.108093261719	-660.1800537109376	-249.8987274169922	738.4119873046876	-661.3882446289064	-218.5186920166016	739.4408569335939	-670.7257080078126	-280.2535095214844	660.2376098632814	-675.4561767578126	-290.3928222656251	543.8763427734376	-683.1196289062501	-305.7418518066407	537.3418579101564	-807.4200439453127	-253.0632019042969	414.078826904297	-712.4475097656251	-320.4293518066407	345.1906433105469	-658.9340209960939	-280.4045715332032	337.0934448242188	-679.7320556640626	-273.9348144531251	286.0072937011719	-705.8615722656251	-342.0508422851563	135.4914703369141	-684.9503784179689	-403.2532043457032	108.5387039184571	-727.8713378906251	-199.7149200439454	63.19340896606447	-757.8958129882814	-192.2080383300782	58.94715881347658	-721.8283691406251	-229.7532043457032	45.8616065979004	-667.1793212890626	nan	nan	nan	-325.9669799804688	140.3676300048828	-768.387878417969	200.9057312011719	1551.685913085938	-916.3160400390627	
1250	6.245	-258.6070251464844	1813.094604492188	-853.755554199219	-388.240936279297	1757.13818359375	-924.9923095703127	-420.1673583984376	1732.071044921875	-763.1780395507814	-417.9816894531251	1562.645874023438	-850.1579589843752	-389.7822570800782	1259.549926757813	-841.9776611328127	-331.8325500488282	1596.446655273438	-996.3123168945315	-167.3230743408203	1581.169677734375	-1096.246215820313	-140.4522705078125	1593.636352539063	-1055.943481445313	-97.83298492431643	1580.649536132813	-1097.91796875	-39.89673233032227	1582.34033203125	-1088.18212890625	-46.64655303955079	1505.789916992188	-1076.229248046875	211.2220916748047	1602.400024414063	-965.1275024414065	216.2750396728516	1619.426879882813	-863.266296386719	-325.0313110351563	1576.695068359375	-693.4243164062501	-168.2486267089844	1557.860107421875	-591.8176269531251	-139.5362854003907	1575.339965820313	-630.8571777343751	-98.75212860107425	1561.248046875	-587.8578491210939	-37.59492874145509	1568.2294921875	-597.0304565429689	-35.61353302001954	1487.086791992188	-610.2322387695314	211.3894042968751	1599.09814453125	-726.9464721679689	218.0337829589844	1591.239990234375	-842.2669677734377	-210.9849700927735	1077.673217773438	-958.1171875000002	-185.9966583251953	1061.31494140625	-743.6904296875001	-369.7004394531251	1115.875854492188	-829.5789794921877	-374.6857910156251	1082.11572265625	-856.041198730469	-367.1556396484376	1085.75439453125	-798.9763183593752	-318.3608093261719	845.4541015625002	-1034.209716796875	-287.2854919433594	766.9306030273439	-1044.27197265625	-238.8259887695313	767.2208251953126	-1040.967407226563	-315.6852722167969	714.6071777343751	-1031.36962890625	-303.9921264648438	554.2988891601564	-1031.781860351563	-284.7580261230469	537.2097778320314	-911.6087036132815	-278.2726440429688	372.4283447265626	-980.0310058593752	-309.0209045410157	333.9272766113282	-1054.043701171875	-276.8819274902344	328.7288513183594	-1020.107055664063	-289.8658447265626	248.0039825439454	-998.4071044921877	-344.3910217285157	134.1516418457032	-1053.865356445313	-321.5631713867188	137.373519897461	-970.3857421875002	-408.023406982422	111.7303009033203	-1006.331298828125	-202.3938140869141	63.49549484252931	-986.689880371094	-198.7520751953126	62.46252822875978	-1032.35205078125	-238.573715209961	51.4565887451172	-1078.842651367188	-288.5796813964844	794.0640258789065	-660.0823974609376	-250.0235900878907	738.4263916015626	-661.3510131835939	-218.5757751464844	739.4400024414064	-670.6293945312501	-280.2951049804688	660.2613525390626	-675.4405517578126	-290.3506469726563	543.8557128906251	-683.0793457031251	-305.7760009765626	537.3209228515626	-807.417175292969	-253.0691986083985	414.1215820312501	-712.4030761718751	-320.4439392089844	345.1822509765626	-658.9617309570314	-280.4236755371094	337.0944213867188	-679.7835083007814	-273.9188842773438	285.9960937500001	-705.8355712890626	-342.0694885253907	135.4561767578125	-684.9499511718751	-403.2227783203126	108.5151672363282	-727.8844604492189	-199.6926879882813	63.21145629882814	-757.8951416015626	-192.2332153320313	58.93653488159181	-721.8453369140626	-229.7394256591797	45.88188934326173	-667.2296142578126	nan	nan	nan	-325.9579467773438	140.3601684570313	-768.4055175781252	200.8430938720704	1551.70068359375	-915.9924926757815	
1251	6.25	-258.7591552734376	1813.111938476563	-853.5098266601565	-388.3833923339845	1757.138305664063	-924.6520996093752	-420.1477966308595	1732.1376953125	-762.9683837890626	-418.0969848632814	1562.6650390625	-849.9243164062502	-389.9621582031251	1259.562377929688	-841.9153442382815	-331.8125610351563	1596.571533203125	-995.9815063476565	-167.6152038574219	1581.351928710938	-1095.926391601563	-140.476791381836	1593.894409179688	-1055.764770507813	-98.71057128906253	1580.500366210938	-1097.02734375	-39.88763427734376	1582.504516601563	-1088.175903320313	-46.83236694335938	1506.021850585938	-1075.916625976563	211.0875549316407	1602.286376953125	-964.6662597656252	216.001937866211	1618.981323242188	-862.5657958984377	-325.2358398437501	1576.526489257813	-693.1005249023439	-168.5322723388672	1557.787353515625	-591.4128417968751	-139.8677520751953	1575.377197265625	-630.4907226562501	-98.92893218994143	1561.266723632813	-587.5934448242189	-37.74082946777344	1568.011352539063	-596.6984863281251	-35.73632431030274	1487.030029296875	-609.9743652343751	211.2362518310547	1599.000244140625	-726.5558471679689	217.7126464843751	1590.109130859375	-841.8747558593752	-211.1660308837891	1077.666748046875	-958.0207519531252	-186.1299438476563	1061.253662109375	-743.6192016601564	-369.7879028320313	1115.847534179688	-829.5476074218752	-374.9185485839844	1082.035522460938	-855.9841918945315	-367.3918151855469	1085.658081054688	-798.9741210937502	-318.4225158691407	845.4750976562502	-1034.088256835938	-287.2629089355469	766.9242553710939	-1044.236206054688	-239.5764160156251	767.6044311523439	-1041.044799804688	-315.7015991210938	714.5581054687501	-1031.37841796875	-303.8927917480469	554.3076782226564	-1031.781372070313	-284.6712646484376	537.1232299804689	-911.6298828125002	-278.2770690917969	372.4324951171876	-979.9477539062502	-308.8536071777344	334.0008239746094	-1053.994384765625	-276.8606872558594	328.6487121582032	-1020.072509765625	-289.8157653808594	247.9339141845704	-998.3943481445315	-344.3757019042969	134.1375122070313	-1053.891845703125	-321.5443420410157	137.3568420410157	-970.3853149414065	-407.9388732910157	111.7226333618164	-1006.495727539063	-202.3581848144532	63.4933319091797	-986.6524658203127	-198.7739715576172	62.49868011474611	-1032.338012695313	-238.3175048828126	51.04795837402345	-1078.890869140625	-288.8045043945313	794.0173339843752	-660.0037841796876	-250.1399078369141	738.4614868164064	-661.2990112304689	-218.6402587890626	739.4348144531251	-670.5994262695314	-280.3550415039063	660.2525634765626	-675.4862670898439	-290.3480529785157	543.8143310546876	-683.0823974609376	-305.7702026367188	537.3066406250001	-807.4299316406252	-253.062240600586	414.0682678222657	-712.4103393554689	-320.4628601074219	345.1068725585938	-658.9650878906251	-280.4402465820313	337.0640869140626	-679.7675781250001	-273.9116210937501	285.9831848144532	-705.8347778320314	-342.0538024902344	135.448974609375	-684.9603271484376	-403.2237548828126	108.4925079345703	-727.9780883789064	-199.6958312988282	63.22129058837892	-757.9300537109376	-192.1803436279297	58.91479873657228	-721.7849731445314	-229.6860046386719	45.82550430297852	-667.1773071289064	nan	nan	nan	-326.0278625488282	140.3457183837891	-768.4252929687502	200.7677154541016	1551.704345703125	-915.505554199219	
1252	6.255	-259.1537475585938	1813.151977539063	-852.966491699219	-388.6142883300782	1757.087646484375	-924.2979736328127	-420.1593017578126	1732.200317382813	-762.7337646484376	-418.2835998535157	1562.687255859375	-849.6740722656252	-390.1423645019532	1259.558959960938	-841.832214355469	-331.8272094726563	1596.569091796875	-995.7584228515627	-167.7115631103516	1581.353637695313	-1095.698608398438	-140.5752258300782	1593.686279296875	-1055.352661132813	-98.60324859619143	1581.076293945313	-1096.728393554688	-41.20481491088868	1582.560302734375	-1086.041015625	-46.82006835937501	1505.991088867188	-1075.722778320313	211.0602416992188	1602.18212890625	-964.229187011719	215.6551666259766	1618.804809570313	-861.9576416015627	-325.4441528320313	1576.58056640625	-692.9047241210939	-168.9038543701172	1557.557250976563	-591.1567382812501	-140.060546875	1575.182373046875	-630.1403198242189	-99.07337951660159	1560.913208007813	-587.1908569335939	-37.88728332519532	1567.873901367188	-596.3934326171876	-35.94979095458985	1486.776733398438	-609.6618041992189	211.0660247802735	1598.872436523438	-726.1607055664064	217.7535858154297	1591.19873046875	-841.4868164062502	-211.2845611572266	1077.732543945313	-958.038024902344	-186.1991577148438	1061.236694335938	-743.5526733398439	-369.9407653808594	1115.7548828125	-829.5525512695315	-375.0781860351563	1081.992309570313	-855.9698486328127	-367.4842224121094	1085.596801757813	-798.9738769531252	-318.5298156738282	845.452819824219	-1034.050170898438	-287.3310241699219	766.9296875000001	-1044.214599609375	-239.5459442138672	767.6270751953126	-1041.058959960938	-315.6253967285157	714.5354003906251	-1031.325439453125	-303.8636474609376	554.3557128906251	-1031.765869140625	-284.6339721679688	537.1076660156251	-911.6252441406252	-278.2054138183594	372.3784484863282	-979.968444824219	-308.7455749511719	334.0227355957032	-1054.04052734375	-276.7665405273438	328.5537109375001	-1019.987854003906	-289.8221130371094	247.9394989013672	-998.383728027344	-344.2967529296876	134.0939025878907	-1053.888061523438	-321.5403442382813	137.3523254394532	-970.411804199219	-407.9477539062501	111.6273040771485	-1006.45654296875	-202.1730499267579	63.24775314331056	-986.2758789062502	-198.695541381836	62.49002075195314	-1032.273071289063	-238.2689514160157	51.06109619140626	-1078.990600585938	-288.9006958007813	794.0622558593752	-660.0202636718751	-250.2295837402344	738.4520874023439	-661.3459472656251	-218.7305603027344	739.4759521484376	-670.5491943359376	-280.3713989257813	660.2238769531251	-675.4549560546876	-290.4062500000001	543.8542480468751	-683.0831909179689	-305.6726074218751	537.3221435546876	-807.3762817382815	-253.072494506836	414.0476989746095	-712.4951171875001	-320.4804077148438	345.0995788574219	-658.9757690429689	-280.4509887695313	337.0531311035157	-679.7742309570314	-273.9286804199219	285.9807128906251	-705.7963867187501	-342.1199645996094	135.4849395751953	-684.9979248046876	-403.2229614257814	108.4950408935547	-727.9716796875001	-199.710433959961	63.23443603515626	-757.9680175781251	-192.1935272216797	58.93202209472658	-721.8273925781251	-229.7320556640626	45.86337661743165	-667.2374877929689	nan	nan	nan	-325.9989318847657	140.335433959961	-768.4301757812502	200.6891021728516	1551.627197265625	-915.1853637695315	
